<svg xmlns="http://www.w3.org/2000/svg" xmlns:xlink="http://www.w3.org/1999/xlink" width="2000" zoomAndPan="magnify" viewBox="0 0 1500 1499.999933" height="2000" preserveAspectRatio="xMidYMid meet" version="1.0"><defs><clipPath id="b3b9998ab9"><path d="M 1.402344 0.402344 L 491 0.402344 L 491 121.089844 L 1.402344 121.089844 Z M 1.402344 0.402344 " clip-rule="nonzero"/></clipPath><clipPath id="b813ec203d"><path d="M 16.402344 0.402344 L 476 0.402344 C 479.976562 0.402344 483.792969 1.984375 486.605469 4.796875 C 489.417969 7.609375 491 11.425781 491 15.402344 L 491 106.089844 C 491 110.070312 489.417969 113.886719 486.605469 116.699219 C 483.792969 119.511719 479.976562 121.089844 476 121.089844 L 16.402344 121.089844 C 12.425781 121.089844 8.609375 119.511719 5.796875 116.699219 C 2.984375 113.886719 1.402344 110.070312 1.402344 106.089844 L 1.402344 15.402344 C 1.402344 11.425781 2.984375 7.609375 5.796875 4.796875 C 8.609375 1.984375 12.425781 0.402344 16.402344 0.402344 Z M 16.402344 0.402344 " clip-rule="nonzero"/></clipPath><clipPath id="17e6f5405f"><path d="M 0.402344 0.402344 L 490 0.402344 L 490 121.089844 L 0.402344 121.089844 Z M 0.402344 0.402344 " clip-rule="nonzero"/></clipPath><clipPath id="1a16776802"><path d="M 15.402344 0.402344 L 475 0.402344 C 478.976562 0.402344 482.792969 1.984375 485.605469 4.796875 C 488.417969 7.609375 490 11.425781 490 15.402344 L 490 106.089844 C 490 110.070312 488.417969 113.886719 485.605469 116.699219 C 482.792969 119.511719 478.976562 121.089844 475 121.089844 L 15.402344 121.089844 C 11.425781 121.089844 7.609375 119.511719 4.796875 116.699219 C 1.984375 113.886719 0.402344 110.070312 0.402344 106.089844 L 0.402344 15.402344 C 0.402344 11.425781 1.984375 7.609375 4.796875 4.796875 C 7.609375 1.984375 11.425781 0.402344 15.402344 0.402344 Z M 15.402344 0.402344 " clip-rule="nonzero"/></clipPath><clipPath id="14d29a9306"><rect x="0" width="490" y="0" height="122"/></clipPath><clipPath id="423e4da3e7"><path d="M 1.394531 0.402344 L 122.082031 0.402344 L 122.082031 734.910156 L 1.394531 734.910156 Z M 1.394531 0.402344 " clip-rule="nonzero"/></clipPath><clipPath id="e13b45110f"><path d="M 122.082031 15.402344 L 122.082031 719.75 C 122.082031 723.726562 120.503906 727.542969 117.6875 730.355469 C 114.875 733.167969 111.0625 734.75 107.082031 734.75 L 16.394531 734.75 C 12.414062 734.75 8.601562 733.167969 5.785156 730.355469 C 2.972656 727.542969 1.394531 723.726562 1.394531 719.75 L 1.394531 15.402344 C 1.394531 11.425781 2.972656 7.609375 5.785156 4.796875 C 8.601562 1.984375 12.414062 0.402344 16.394531 0.402344 L 107.082031 0.402344 C 111.0625 0.402344 114.875 1.984375 117.6875 4.796875 C 120.503906 7.609375 122.082031 11.425781 122.082031 15.402344 Z M 122.082031 15.402344 " clip-rule="nonzero"/></clipPath><clipPath id="70dcf0a73c"><path d="M 0.394531 0.402344 L 121.082031 0.402344 L 121.082031 734.800781 L 0.394531 734.800781 Z M 0.394531 0.402344 " clip-rule="nonzero"/></clipPath><clipPath id="0492127a41"><path d="M 121.082031 15.402344 L 121.082031 719.75 C 121.082031 723.726562 119.503906 727.542969 116.6875 730.355469 C 113.875 733.167969 110.0625 734.75 106.082031 734.75 L 15.394531 734.75 C 11.414062 734.75 7.601562 733.167969 4.785156 730.355469 C 1.972656 727.542969 0.394531 723.726562 0.394531 719.75 L 0.394531 15.402344 C 0.394531 11.425781 1.972656 7.609375 4.785156 4.796875 C 7.601562 1.984375 11.414062 0.402344 15.394531 0.402344 L 106.082031 0.402344 C 110.0625 0.402344 113.875 1.984375 116.6875 4.796875 C 119.503906 7.609375 121.082031 11.425781 121.082031 15.402344 Z M 121.082031 15.402344 " clip-rule="nonzero"/></clipPath><clipPath id="7cafe8ea97"><rect x="0" width="122" y="0" height="735"/></clipPath><clipPath id="7156599955"><path d="M 613.996094 0.402344 L 734.6875 0.402344 L 734.6875 734.910156 L 613.996094 734.910156 Z M 613.996094 0.402344 " clip-rule="nonzero"/></clipPath><clipPath id="870c3d37ac"><path d="M 734.6875 15.402344 L 734.6875 719.75 C 734.6875 723.726562 733.105469 727.542969 730.292969 730.355469 C 727.480469 733.167969 723.664062 734.75 719.6875 734.75 L 628.996094 734.75 C 625.019531 734.75 621.203125 733.167969 618.390625 730.355469 C 615.578125 727.542969 613.996094 723.726562 613.996094 719.75 L 613.996094 15.402344 C 613.996094 11.425781 615.578125 7.609375 618.390625 4.796875 C 621.203125 1.984375 625.019531 0.402344 628.996094 0.402344 L 719.6875 0.402344 C 723.664062 0.402344 727.480469 1.984375 730.292969 4.796875 C 733.105469 7.609375 734.6875 11.425781 734.6875 15.402344 Z M 734.6875 15.402344 " clip-rule="nonzero"/></clipPath><clipPath id="a42e56156e"><path d="M 0.996094 0.402344 L 121.6875 0.402344 L 121.6875 734.800781 L 0.996094 734.800781 Z M 0.996094 0.402344 " clip-rule="nonzero"/></clipPath><clipPath id="bc66aef50e"><path d="M 121.6875 15.402344 L 121.6875 719.75 C 121.6875 723.726562 120.105469 727.542969 117.292969 730.355469 C 114.480469 733.167969 110.664062 734.75 106.6875 734.75 L 15.996094 734.75 C 12.019531 734.75 8.203125 733.167969 5.390625 730.355469 C 2.578125 727.542969 0.996094 723.726562 0.996094 719.75 L 0.996094 15.402344 C 0.996094 11.425781 2.578125 7.609375 5.390625 4.796875 C 8.203125 1.984375 12.019531 0.402344 15.996094 0.402344 L 106.6875 0.402344 C 110.664062 0.402344 114.480469 1.984375 117.292969 4.796875 C 120.105469 7.609375 121.6875 11.425781 121.6875 15.402344 Z M 121.6875 15.402344 " clip-rule="nonzero"/></clipPath><clipPath id="b52d75513e"><rect x="0" width="122" y="0" height="735"/></clipPath><clipPath id="2fd640a09a"><path d="M 859.902344 0.402344 L 980.589844 0.402344 L 980.589844 980 L 859.902344 980 Z M 859.902344 0.402344 " clip-rule="nonzero"/></clipPath><clipPath id="a3d1b7fb36"><path d="M 980.589844 15.402344 L 980.589844 964.59375 C 980.589844 968.574219 979.011719 972.390625 976.195312 975.203125 C 973.382812 978.015625 969.570312 979.59375 965.589844 979.59375 L 874.902344 979.59375 C 870.921875 979.59375 867.109375 978.015625 864.292969 975.203125 C 861.480469 972.390625 859.902344 968.574219 859.902344 964.59375 L 859.902344 15.402344 C 859.902344 11.421875 861.480469 7.605469 864.292969 4.792969 C 867.109375 1.980469 870.921875 0.402344 874.902344 0.402344 L 965.589844 0.402344 C 969.570312 0.402344 973.382812 1.980469 976.195312 4.792969 C 979.011719 7.605469 980.589844 11.421875 980.589844 15.402344 Z M 980.589844 15.402344 " clip-rule="nonzero"/></clipPath><clipPath id="956e0140a7"><path d="M 0.902344 0.402344 L 121.589844 0.402344 L 121.589844 979.601562 L 0.902344 979.601562 Z M 0.902344 0.402344 " clip-rule="nonzero"/></clipPath><clipPath id="f8ba89e338"><path d="M 121.589844 15.402344 L 121.589844 964.59375 C 121.589844 968.574219 120.011719 972.390625 117.195312 975.203125 C 114.382812 978.015625 110.570312 979.59375 106.589844 979.59375 L 15.902344 979.59375 C 11.921875 979.59375 8.109375 978.015625 5.292969 975.203125 C 2.480469 972.390625 0.902344 968.574219 0.902344 964.59375 L 0.902344 15.402344 C 0.902344 11.421875 2.480469 7.605469 5.292969 4.792969 C 8.109375 1.980469 11.921875 0.402344 15.902344 0.402344 L 106.589844 0.402344 C 110.570312 0.402344 114.382812 1.980469 117.195312 4.792969 C 120.011719 7.605469 121.589844 11.421875 121.589844 15.402344 Z M 121.589844 15.402344 " clip-rule="nonzero"/></clipPath><clipPath id="17aa20d032"><rect x="0" width="122" y="0" height="980"/></clipPath><clipPath id="6c116b5570"><path d="M 1 858.898438 L 980.59375 858.898438 L 980.59375 979.589844 L 1 979.589844 Z M 1 858.898438 " clip-rule="nonzero"/></clipPath><clipPath id="275d8e61b7"><path d="M 965.59375 979.589844 L 16.398438 979.589844 C 12.417969 979.589844 8.605469 978.007812 5.789062 975.195312 C 2.976562 972.382812 1.398438 968.566406 1.398438 964.589844 L 1.398438 873.898438 C 1.398438 869.921875 2.976562 866.105469 5.789062 863.292969 C 8.605469 860.480469 12.417969 858.898438 16.398438 858.898438 L 965.59375 858.898438 C 969.570312 858.898438 973.386719 860.480469 976.199219 863.292969 C 979.011719 866.105469 980.59375 869.921875 980.59375 873.898438 L 980.59375 964.589844 C 980.59375 968.566406 979.011719 972.382812 976.199219 975.195312 C 973.386719 978.007812 969.570312 979.589844 965.59375 979.589844 Z M 965.59375 979.589844 " clip-rule="nonzero"/></clipPath><clipPath id="aabede99f0"><path d="M 0.160156 0.898438 L 979.59375 0.898438 L 979.59375 121.589844 L 0.160156 121.589844 Z M 0.160156 0.898438 " clip-rule="nonzero"/></clipPath><clipPath id="ec4f75a0b4"><path d="M 964.59375 121.589844 L 15.398438 121.589844 C 11.417969 121.589844 7.605469 120.007812 4.789062 117.195312 C 1.976562 114.382812 0.398438 110.566406 0.398438 106.589844 L 0.398438 15.898438 C 0.398438 11.921875 1.976562 8.105469 4.789062 5.292969 C 7.605469 2.480469 11.417969 0.898438 15.398438 0.898438 L 964.59375 0.898438 C 968.570312 0.898438 972.386719 2.480469 975.199219 5.292969 C 978.011719 8.105469 979.59375 11.921875 979.59375 15.898438 L 979.59375 106.589844 C 979.59375 110.566406 978.011719 114.382812 975.199219 117.195312 C 972.386719 120.007812 968.570312 121.589844 964.59375 121.589844 Z M 964.59375 121.589844 " clip-rule="nonzero"/></clipPath><clipPath id="a324c55709"><rect x="0" width="980" y="0" height="122"/></clipPath><clipPath id="d2888c6cd3"><path d="M 246.203125 614.058594 L 736 614.058594 L 736 734.75 L 246.203125 734.75 Z M 246.203125 614.058594 " clip-rule="nonzero"/></clipPath><clipPath id="d4fdc9992c"><path d="M 261.203125 614.058594 L 720.796875 614.058594 C 724.777344 614.058594 728.59375 615.640625 731.40625 618.453125 C 734.21875 621.265625 735.796875 625.082031 735.796875 629.058594 L 735.796875 719.75 C 735.796875 723.726562 734.21875 727.542969 731.40625 730.355469 C 728.59375 733.167969 724.777344 734.75 720.796875 734.75 L 261.203125 734.75 C 257.222656 734.75 253.40625 733.167969 250.59375 730.355469 C 247.78125 727.542969 246.203125 723.726562 246.203125 719.75 L 246.203125 629.058594 C 246.203125 625.082031 247.78125 621.265625 250.59375 618.453125 C 253.40625 615.640625 257.222656 614.058594 261.203125 614.058594 Z M 261.203125 614.058594 " clip-rule="nonzero"/></clipPath><clipPath id="e0aa8f564f"><path d="M 0.203125 0.0585938 L 489.800781 0.0585938 L 489.800781 120.75 L 0.203125 120.75 Z M 0.203125 0.0585938 " clip-rule="nonzero"/></clipPath><clipPath id="082c95bacc"><path d="M 15.203125 0.0585938 L 474.796875 0.0585938 C 478.777344 0.0585938 482.59375 1.640625 485.40625 4.453125 C 488.21875 7.265625 489.796875 11.082031 489.796875 15.058594 L 489.796875 105.75 C 489.796875 109.726562 488.21875 113.542969 485.40625 116.355469 C 482.59375 119.167969 478.777344 120.75 474.796875 120.75 L 15.203125 120.75 C 11.222656 120.75 7.40625 119.167969 4.59375 116.355469 C 1.78125 113.542969 0.203125 109.726562 0.203125 105.75 L 0.203125 15.058594 C 0.203125 11.082031 1.78125 7.265625 4.59375 4.453125 C 7.40625 1.640625 11.222656 0.0585938 15.203125 0.0585938 Z M 15.203125 0.0585938 " clip-rule="nonzero"/></clipPath><clipPath id="f7af8b49e4"><rect x="0" width="490" y="0" height="121"/></clipPath><clipPath id="afe6c131f3"><path d="M 245.097656 246.886719 L 734.925781 246.886719 L 734.925781 367.574219 L 245.097656 367.574219 Z M 245.097656 246.886719 " clip-rule="nonzero"/></clipPath><clipPath id="94c4d66f60"><path d="M 260.097656 246.886719 L 719.695312 246.886719 C 723.671875 246.886719 727.488281 248.46875 730.300781 251.28125 C 733.113281 254.09375 734.695312 257.910156 734.695312 261.886719 L 734.695312 352.574219 C 734.695312 356.554688 733.113281 360.371094 730.300781 363.183594 C 727.488281 365.996094 723.671875 367.574219 719.695312 367.574219 L 260.097656 367.574219 C 256.121094 367.574219 252.304688 365.996094 249.492188 363.183594 C 246.679688 360.371094 245.097656 356.554688 245.097656 352.574219 L 245.097656 261.886719 C 245.097656 257.910156 246.679688 254.09375 249.492188 251.28125 C 252.304688 248.46875 256.121094 246.886719 260.097656 246.886719 Z M 260.097656 246.886719 " clip-rule="nonzero"/></clipPath><clipPath id="047d113198"><path d="M 0.0976562 0.886719 L 489.839844 0.886719 L 489.839844 121.574219 L 0.0976562 121.574219 Z M 0.0976562 0.886719 " clip-rule="nonzero"/></clipPath><clipPath id="408700afea"><path d="M 15.097656 0.886719 L 474.695312 0.886719 C 478.671875 0.886719 482.488281 2.46875 485.300781 5.28125 C 488.113281 8.09375 489.695312 11.910156 489.695312 15.886719 L 489.695312 106.574219 C 489.695312 110.554688 488.113281 114.371094 485.300781 117.183594 C 482.488281 119.996094 478.671875 121.574219 474.695312 121.574219 L 15.097656 121.574219 C 11.121094 121.574219 7.304688 119.996094 4.492188 117.183594 C 1.679688 114.371094 0.0976562 110.554688 0.0976562 106.574219 L 0.0976562 15.886719 C 0.0976562 11.910156 1.679688 8.09375 4.492188 5.28125 C 7.304688 2.46875 11.121094 0.886719 15.097656 0.886719 Z M 15.097656 0.886719 " clip-rule="nonzero"/></clipPath><clipPath id="338fab828b"><rect x="0" width="490" y="0" height="122"/></clipPath><clipPath id="a23519132e"><path d="M 246.191406 246.886719 L 366.882812 246.886719 L 366.882812 736.714844 L 246.191406 736.714844 Z M 246.191406 246.886719 " clip-rule="nonzero"/></clipPath><clipPath id="13c24e7637"><path d="M 366.882812 261.886719 L 366.882812 721.484375 C 366.882812 725.460938 365.300781 729.277344 362.488281 732.089844 C 359.675781 734.902344 355.859375 736.484375 351.882812 736.484375 L 261.191406 736.484375 C 257.214844 736.484375 253.398438 734.902344 250.585938 732.089844 C 247.773438 729.277344 246.191406 725.460938 246.191406 721.484375 L 246.191406 261.886719 C 246.191406 257.90625 247.773438 254.09375 250.585938 251.28125 C 253.398438 248.464844 257.214844 246.886719 261.191406 246.886719 L 351.882812 246.886719 C 355.859375 246.886719 359.675781 248.464844 362.488281 251.28125 C 365.300781 254.09375 366.882812 257.90625 366.882812 261.886719 Z M 366.882812 261.886719 " clip-rule="nonzero"/></clipPath><clipPath id="2629456120"><path d="M 0.191406 0.886719 L 120.882812 0.886719 L 120.882812 490.714844 L 0.191406 490.714844 Z M 0.191406 0.886719 " clip-rule="nonzero"/></clipPath><clipPath id="1da9a22383"><path d="M 120.882812 15.886719 L 120.882812 475.484375 C 120.882812 479.460938 119.300781 483.277344 116.488281 486.089844 C 113.675781 488.902344 109.859375 490.484375 105.882812 490.484375 L 15.191406 490.484375 C 11.214844 490.484375 7.398438 488.902344 4.585938 486.089844 C 1.773438 483.277344 0.191406 479.460938 0.191406 475.484375 L 0.191406 15.886719 C 0.191406 11.90625 1.773438 8.09375 4.585938 5.28125 C 7.398438 2.464844 11.214844 0.886719 15.191406 0.886719 L 105.882812 0.886719 C 109.859375 0.886719 113.675781 2.464844 116.488281 5.28125 C 119.300781 8.09375 120.882812 11.90625 120.882812 15.886719 Z M 120.882812 15.886719 " clip-rule="nonzero"/></clipPath><clipPath id="0438959a93"><rect x="0" width="121" y="0" height="491"/></clipPath><clipPath id="686de42217"><rect x="0" width="981" y="0" height="981"/></clipPath></defs><g transform="matrix(1, 0, 0, 1, 259, 260)"><g clip-path="url(#686de42217)"><g clip-path="url(#b3b9998ab9)"><g clip-path="url(#b813ec203d)"><g transform="matrix(1, 0, 0, 1, 1, 0.000000000000113687)"><g clip-path="url(#14d29a9306)"><g clip-path="url(#17e6f5405f)"><g clip-path="url(#1a16776802)"><path fill="#ffffff" d="M 0.402344 0.402344 L 490.230469 0.402344 L 490.230469 121.089844 L 0.402344 121.089844 Z M 0.402344 0.402344 " fill-opacity="1" fill-rule="nonzero"/></g></g></g></g></g></g><g clip-path="url(#423e4da3e7)"><g clip-path="url(#e13b45110f)"><g transform="matrix(1, 0, 0, 1, 1, 0.000000000000113687)"><g clip-path="url(#7cafe8ea97)"><g clip-path="url(#70dcf0a73c)"><g clip-path="url(#0492127a41)"><path fill="#ffffff" d="M 121.082031 0.402344 L 121.082031 734.910156 L 0.394531 734.910156 L 0.394531 0.402344 Z M 121.082031 0.402344 " fill-opacity="1" fill-rule="nonzero"/></g></g></g></g></g></g><g clip-path="url(#7156599955)"><g clip-path="url(#870c3d37ac)"><g transform="matrix(1, 0, 0, 1, 613, 0.000000000000113687)"><g clip-path="url(#b52d75513e)"><g clip-path="url(#a42e56156e)"><g clip-path="url(#bc66aef50e)"><path fill="#ffffff" d="M 121.6875 0.402344 L 121.6875 734.910156 L 0.996094 734.910156 L 0.996094 0.402344 Z M 121.6875 0.402344 " fill-opacity="1" fill-rule="nonzero"/></g></g></g></g></g></g><g clip-path="url(#2fd640a09a)"><g clip-path="url(#a3d1b7fb36)"><g transform="matrix(1, 0, 0, 1, 859, 0.000000000000113687)"><g clip-path="url(#17aa20d032)"><g clip-path="url(#956e0140a7)"><g clip-path="url(#f8ba89e338)"><path fill="#ffffff" d="M 121.589844 0.402344 L 121.589844 979.585938 L 0.902344 979.585938 L 0.902344 0.402344 Z M 121.589844 0.402344 " fill-opacity="1" fill-rule="nonzero"/></g></g></g></g></g></g><g clip-path="url(#6c116b5570)"><g clip-path="url(#275d8e61b7)"><g transform="matrix(1, 0, 0, 1, 1, 858)"><g clip-path="url(#a324c55709)"><g clip-path="url(#aabede99f0)"><g clip-path="url(#ec4f75a0b4)"><path fill="#ffffff" d="M 979.59375 121.589844 L 0.410156 121.589844 L 0.410156 0.898438 L 979.59375 0.898438 Z M 979.59375 121.589844 " fill-opacity="1" fill-rule="nonzero"/></g></g></g></g></g></g><g clip-path="url(#d2888c6cd3)"><g clip-path="url(#d4fdc9992c)"><g transform="matrix(1, 0, 0, 1, 246, 614)"><g clip-path="url(#f7af8b49e4)"><g clip-path="url(#e0aa8f564f)"><g clip-path="url(#082c95bacc)"><path fill="#ffffff" d="M 0.203125 0.0585938 L 490.027344 0.0585938 L 490.027344 120.75 L 0.203125 120.75 Z M 0.203125 0.0585938 " fill-opacity="1" fill-rule="nonzero"/></g></g></g></g></g></g><g clip-path="url(#afe6c131f3)"><g clip-path="url(#94c4d66f60)"><g transform="matrix(1, 0, 0, 1, 245, 246)"><g clip-path="url(#338fab828b)"><g clip-path="url(#047d113198)"><g clip-path="url(#408700afea)"><path fill="#ffffff" d="M 0.0976562 0.886719 L 489.925781 0.886719 L 489.925781 121.574219 L 0.0976562 121.574219 Z M 0.0976562 0.886719 " fill-opacity="1" fill-rule="nonzero"/></g></g></g></g></g></g><g clip-path="url(#a23519132e)"><g clip-path="url(#13c24e7637)"><g transform="matrix(1, 0, 0, 1, 246, 246)"><g clip-path="url(#0438959a93)"><g clip-path="url(#2629456120)"><g clip-path="url(#1da9a22383)"><path fill="#ffffff" d="M 120.882812 0.886719 L 120.882812 490.714844 L 0.191406 490.714844 L 0.191406 0.886719 Z M 120.882812 0.886719 " fill-opacity="1" fill-rule="nonzero"/></g></g></g></g></g></g></g></g></svg>